HIERARCHY
ROOT joint_Root
{
	OFFSET 0.0 0.0 0.0
	CHANNELS 6 Xposition Yposition Zposition Zrotation Xrotation Yrotation 
	JOINT Hips
	{
		OFFSET 4.5925 91.4895 -427.239
		CHANNELS 6 Xposition Yposition Zposition Zrotation Xrotation Yrotation 
		JOINT Spine
		{
			OFFSET 15.7357 0.0 0.0
			CHANNELS 6 Xposition Yposition Zposition Zrotation Xrotation Yrotation 
			JOINT Chest
			{
				OFFSET 8.98455 -0.406207 0.0
				CHANNELS 6 Xposition Yposition Zposition Zrotation Xrotation Yrotation 
				JOINT Neck
				{
					OFFSET 16.3773 0.0 0.0
					CHANNELS 6 Xposition Yposition Zposition Zrotation Xrotation Yrotation 
					JOINT Head
					{
						OFFSET 6.45672 0.0 0.0
						CHANNELS 6 Xposition Yposition Zposition Zrotation Xrotation Yrotation 
						End Site
						{
							OFFSET 0.0 0.0 0.0
						}
					}
				}
				JOINT Shoulder_L
				{
					OFFSET 12.9942 -0.242716 4.98039
					CHANNELS 6 Xposition Yposition Zposition Zrotation Xrotation Yrotation 
					JOINT UpperArm_L
					{
						OFFSET 5.34809 0.0 0.0
						CHANNELS 6 Xposition Yposition Zposition Zrotation Xrotation Yrotation 
						JOINT LowerArm_L
						{
							OFFSET 24.3286 1.87007e-05 0.0
							CHANNELS 6 Xposition Yposition Zposition Zrotation Xrotation Yrotation 
							JOINT Hand_L
							{
								OFFSET 22.2916 0.0 0.0
								CHANNELS 6 Xposition Yposition Zposition Zrotation Xrotation Yrotation 
								End Site
								{
									OFFSET 0.0 0.0 0.0
								}
							}
						}
					}
				}
				JOINT Shoulder_R
				{
					OFFSET 12.9945 -0.242716 -4.98039
					CHANNELS 6 Xposition Yposition Zposition Zrotation Xrotation Yrotation 
					JOINT UpperArm_R
					{
						OFFSET -5.34813 0.0 0.0
						CHANNELS 6 Xposition Yposition Zposition Zrotation Xrotation Yrotation 
						JOINT LowerArm_R
						{
							OFFSET -24.3289 0.000322201 0.0
							CHANNELS 6 Xposition Yposition Zposition Zrotation Xrotation Yrotation 
							JOINT Hand_R
							{
								OFFSET -22.2915 -0.000108084 0.0
								CHANNELS 6 Xposition Yposition Zposition Zrotation Xrotation Yrotation 
								End Site
								{
									OFFSET 0.0 0.0 0.0
								}
							}
						}
					}
				}
			}
		}
		JOINT UpperLeg_L
		{
			OFFSET -2.19248 -6.46944 0.0
			CHANNELS 6 Xposition Yposition Zposition Zrotation Xrotation Yrotation 
			JOINT LowerLeg_L
			{
				OFFSET 39.0811 0.0 -1.23785e-05
				CHANNELS 6 Xposition Yposition Zposition Zrotation Xrotation Yrotation 
				JOINT Foot_L
				{
					OFFSET 40.9854 0.0 -1.26872e-05
					CHANNELS 6 Xposition Yposition Zposition Zrotation Xrotation Yrotation 
					JOINT Toes_L
					{
						OFFSET 11.7543 0.0 0.0
						CHANNELS 6 Xposition Yposition Zposition Zrotation Xrotation Yrotation 
						End Site
						{
							OFFSET 0.0 0.0 0.0
						}
					}
				}
			}
		}
		JOINT UpperLeg_R
		{
			OFFSET -2.19251 6.46944 0.0
			CHANNELS 6 Xposition Yposition Zposition Zrotation Xrotation Yrotation 
			JOINT LowerLeg_R
			{
				OFFSET -39.0811 -0.00228153 -0.0401928
				CHANNELS 6 Xposition Yposition Zposition Zrotation Xrotation Yrotation 
				JOINT Foot_R
				{
					OFFSET -40.9854 0.0 0.0
					CHANNELS 6 Xposition Yposition Zposition Zrotation Xrotation Yrotation 
					JOINT Toes_R
					{
						OFFSET -11.7543 0.0 0.0
						CHANNELS 6 Xposition Yposition Zposition Zrotation Xrotation Yrotation 
						End Site
						{
							OFFSET 0.0 0.0 0.0
						}
					}
				}
			}
		}
	}
}
MOTION
Frames:	4
Frame Time:	0.0333333
0.000000 0.000000 0.000000 0.000000 0.000000 -0.000000 2.316660 86.335900 -0.125945 89.627100 -15.168900 6.521790 15.735700 0.000005 -0.000001 97.303300 82.183000 -96.855300 8.984550 -0.406207 -0.000000 7.737090 1.979260 0.761309 16.377300 -0.000001 -0.000001 -0.964931 -0.609649 2.010470 6.456720 -0.000001 -0.000000 -3.887010 -0.424136 3.553440 12.994200 -0.242716 4.980390 -92.097600 6.958480 -73.178400 5.348090 -0.000007 -0.000001 -64.534200 33.771300 -9.663150 24.328600 0.000019 0.000005 7.631410 21.008900 -20.512600 22.291600 -0.000001 0.000005 8.307150 5.258020 1.254560 12.994500 -0.242716 -4.980390 88.524400 12.210700 -83.055300 -5.348130 -0.000001 -0.000004 -52.246700 39.058300 -21.123700 -24.328900 0.000322 -0.000009 0.033436 0.110318 -19.499800 -22.291500 -0.000108 -0.000004 16.254600 5.445760 -4.482810 -2.192480 -6.469440 -0.000000 -176.456000 -19.371300 -11.002700 39.081100 -0.000007 -0.000012 -0.474272 0.413820 48.895200 40.985400 -0.000006 -0.000013 -0.276568 -1.186940 -80.992900 11.754300 -0.000000 0.000003 -0.000453 -0.003671 -16.712300 -2.192510 6.469440 -0.000001 176.538000 2.743950 164.943000 -39.081100 -0.002282 -0.040193 0.028738 -0.021172 50.288100 -40.985400 0.000008 0.000006 5.307800 7.102920 -78.727000 -11.754300 -0.000006 -0.000006 -0.976025 -1.208450 -16.956300
0.000000 0.000000 0.000000 0.000000 0.000000 -0.000000 2.922670 87.745900 0.560511 89.991900 -17.038600 6.095350 15.735700 0.000005 -0.000001 95.439400 83.057700 -94.329500 8.984550 -0.406207 -0.000000 6.045680 1.295950 2.148830 16.377300 -0.000001 -0.000001 0.416273 -0.691588 2.161320 6.456720 -0.000001 -0.000000 -1.859270 0.168069 2.272340 12.994200 -0.242716 4.980390 -91.556800 5.113530 -73.040800 5.348090 -0.000007 -0.000001 -64.543300 28.475200 -11.249800 24.328600 0.000019 0.000005 12.124300 29.740800 -23.420000 22.291600 -0.000001 0.000005 1.354270 5.339100 -1.088470 12.994500 -0.242716 -4.980390 88.452500 10.872700 -81.848400 -5.348130 -0.000001 -0.000004 -56.160700 36.076100 -20.226100 -24.328900 0.000322 -0.000009 1.957710 6.742350 -16.252800 -22.291500 -0.000108 -0.000004 16.175300 5.352070 -1.450990 -2.192480 -6.469440 -0.000000 -177.372000 -20.506400 -8.185580 39.081100 -0.000007 -0.000012 -0.405847 0.431607 43.239100 40.985400 -0.000006 -0.000013 -0.197339 -2.064310 -78.820000 11.754300 -0.000000 0.000003 -0.000453 -0.003665 -16.712100 -2.192510 6.469440 -0.000001 175.596000 2.412220 166.839000 -39.081100 -0.002282 -0.040193 0.020973 -0.017414 45.483700 -40.985400 0.000008 0.000006 5.148720 9.012330 -76.179100 -11.754300 -0.000006 -0.000006 -1.023960 -1.260530 -17.328100
0.000000 0.000000 0.000000 0.000000 0.000000 -0.000000 3.347500 89.534900 1.111320 89.845500 -16.944400 4.708560 15.735700 0.000005 -0.000001 90.072600 84.378600 -88.145200 8.984550 -0.406207 -0.000000 3.480630 -0.057789 3.852340 16.377300 -0.000001 -0.000001 2.712220 -1.091360 2.063200 6.456720 -0.000001 -0.000000 -0.146002 -0.292014 1.770480 12.994200 -0.242716 4.980390 -91.300900 3.959740 -71.795000 5.348090 -0.000007 -0.000001 -56.920600 22.601500 -18.553900 24.328600 0.000019 0.000005 12.022900 22.480500 -29.130500 22.291600 -0.000001 0.000005 4.678790 5.317080 -0.462738 12.994500 -0.242716 -4.980390 88.330800 9.713510 -80.199400 -5.348130 -0.000001 -0.000004 -59.985200 32.902500 -17.205600 -24.328900 0.000322 -0.000009 2.603910 9.024940 -16.175200 -22.291500 -0.000108 -0.000004 15.966000 5.287370 0.422432 -2.192480 -6.469440 -0.000000 -178.449000 -18.951500 -5.634670 39.081100 -0.000007 -0.000012 -0.291290 0.408731 35.476900 40.985400 -0.000006 -0.000013 -0.274840 -3.598940 -75.289500 11.754300 -0.000000 0.000003 -0.000371 -0.003103 -16.692300 -2.192510 6.469440 -0.000001 175.299000 3.577200 169.159000 -39.081100 -0.002282 -0.040193 0.015890 -0.015820 38.553400 -40.985400 0.000008 0.000006 4.570620 10.395700 -72.169400 -11.754300 -0.000006 -0.000006 -1.012340 -1.228500 -18.116000
0.000000 0.000000 0.000000 0.000000 0.000000 -0.000000 3.447640 90.857700 1.339530 89.416800 -16.350400 3.200930 15.735700 0.000005 -0.000001 85.974000 85.631100 -83.263600 8.984550 -0.406207 -0.000000 0.974448 -0.773734 5.423010 16.377300 -0.000001 -0.000001 5.001640 -2.499250 2.201170 6.456720 -0.000001 -0.000000 1.531260 -1.583340 1.556600 12.994200 -0.242716 4.980390 -90.977800 3.010580 -72.000500 5.348090 -0.000007 -0.000001 -49.595200 8.508500 -28.096200 24.328600 0.000019 0.000005 13.693600 17.957500 -38.339500 22.291600 -0.000001 0.000005 11.006800 5.315300 -0.336383 12.994500 -0.242716 -4.980390 88.280200 8.661360 -78.724100 -5.348130 -0.000001 -0.000004 -61.798100 31.484500 -13.645000 -24.328900 0.000322 -0.000009 1.550290 4.791080 -17.986700 -22.291500 -0.000108 -0.000004 13.927300 5.340530 -1.134410 -2.192480 -6.469440 -0.000000 -178.505000 -19.042900 -3.692760 39.081100 -0.000007 -0.000012 -0.193611 0.351668 28.835400 40.985400 -0.000006 -0.000013 0.150530 -2.869580 -72.045400 11.754300 -0.000000 0.000003 -0.000243 -0.002179 -16.659300 -2.192510 6.469440 -0.000001 175.626000 5.210800 170.966000 -39.081100 -0.002282 -0.040193 0.012748 -0.014852 32.471500 -40.985400 0.000008 0.000006 4.146660 11.432000 -68.665100 -11.754300 -0.000006 -0.000006 -0.921467 -1.107460 -18.761100
